<?xml version="1.0" encoding="utf-8"?><!-- Uploaded to: SVG Repo, www.svgrepo.com, Generator: SVG Repo Mixer Tools -->
<svg version="1.1" id="Uploaded to svgrepo.com" xmlns="http://www.w3.org/2000/svg" xmlns:xlink="http://www.w3.org/1999/xlink" 
	 width="800px" height="800px" viewBox="0 0 32 32" xml:space="preserve">
<style type="text/css">
	.stone_een{fill:#111918;}
	.st0{fill:#0B1719;}
</style>
<path class="stone_een" d="M22.511,23C22.195,22.581,22,22.065,22,21.5c0-1.209,0.859-2.218,2-2.45V18.5c0-0.276,0.224-0.5,0.5-0.5
	s0.5,0.224,0.5,0.5v0.55c1.141,0.232,2,1.24,2,2.45c0,0.565-0.195,1.081-0.511,1.5H29V8c0-1.657-1.343-3-3-3H6C4.343,5,3,6.343,3,8
	v15H22.511z M20.5,13h2c0.276,0,0.5,0.224,0.5,0.5c0,0.276-0.224,0.5-0.5,0.5h-2c-0.276,0-0.5-0.224-0.5-0.5
	C20,13.224,20.224,13,20.5,13z M20.5,15h2c0.276,0,0.5,0.224,0.5,0.5c0,0.276-0.224,0.5-0.5,0.5h-2c-0.276,0-0.5-0.224-0.5-0.5
	C20,15.224,20.224,15,20.5,15z M16.5,12h1c0.276,0,0.5,0.224,0.5,0.5v4c0,0.276-0.224,0.5-0.5,0.5S17,16.776,17,16.5V13h-0.5
	c-0.276,0-0.5-0.224-0.5-0.5C16,12.224,16.224,12,16.5,12z M11.5,14H12v-0.5c0-0.276,0.224-0.5,0.5-0.5s0.5,0.224,0.5,0.5V14h0.5
	c0.276,0,0.5,0.224,0.5,0.5c0,0.276-0.224,0.5-0.5,0.5H13v0.5c0,0.276-0.224,0.5-0.5,0.5S12,15.776,12,15.5V15h-0.5
	c-0.276,0-0.5-0.224-0.5-0.5C11,14.224,11.224,14,11.5,14z M7.5,12h1C8.776,12,9,12.224,9,12.5v4C9,16.776,8.776,17,8.5,17
	S8,16.776,8,16.5V13H7.5C7.224,13,7,12.776,7,12.5C7,12.224,7.224,12,7.5,12z M30,25v1c0,0.552-0.448,1-1,1H3c-0.552,0-1-0.448-1-1
	v-1c0-0.552,0.448-1,1-1h26C29.552,24,30,24.448,30,25z M24.5,23c-0.827,0-1.5-0.673-1.5-1.5s0.673-1.5,1.5-1.5s1.5,0.673,1.5,1.5
	S25.327,23,24.5,23z"/>
</svg>