<svg xmlns="http://www.w3.org/2000/svg" version="1.1" xmlns:xlink="http://www.w3.org/1999/xlink" xmlns:svgjs="http://svgjs.dev/svgjs" viewBox="0 0 4.697850602145897 2.830473455749765"><g transform="matrix(0.8185683941017348,0,0,0.8185683941017348,0.6829379617732771,0.985368413491867)"><g clip-path="url(#SvgjsClipPath3084)"><g clip-path="url(#SvgjsClipPath30821854e6bd-f869-4ac9-b70b-a406267042b6)"><path d=" M 3.5194598865116267 -0.5764100744208966 C 3.215287151618774 -0.5763481940945137 2.96874502569546 -0.3297391843482985 2.968765652471046 -0.025566443860417176 C 2.9687862792466353 0.2786062966274643 3.215361849349187 0.5251818667300154 3.5195345898370674 0.525202493505603 C 3.823707330324948 0.5252231202811899 4.070316340071164 0.2786809943578753 4.070378220397546 -0.025491740534976604 L 3.5194598865116267 -0.025491740534976604 Z" fill="#636b63" transform="matrix(1,0,0,1,0,0)" fill-rule="nonzero"></path></g><g clip-path="url(#SvgjsClipPath30821854e6bd-f869-4ac9-b70b-a406267042b6)"><path d=" M 2.4179593495109186 -0.5764100744208966 C 2.7221320844037704 -0.5763481940945137 2.9686742103270856 -0.32973918434829874 2.9686535835514976 -0.025566443860417398 C 2.96863295677591 0.27860629662746406 2.7220573866733595 0.5251818667300154 2.4178846461854775 0.525202493505603 C 2.1137119056975973 0.5252231202811901 1.8671028959513818 0.27868099435787563 1.867041015624999 -0.02549174053497627 L 2.4179593495109186 -0.02549174053497627 Z" fill="#b5b5b5" transform="matrix(1,0,0,1,0,0)" fill-rule="nonzero"></path></g><g clip-path="url(#SvgjsClipPath30821854e6bd-f869-4ac9-b70b-a406267042b6)"><path d=" M 2.4181834366916743 1.627263261122784 C 2.6409637853199612 1.6272632611227844 2.8418077461976314 1.4930636169092266 2.9270620946741963 1.2872414125658223 C 3.01231644315076 1.081419208222418 2.9651917949100253 0.8445076030692231 2.8076622996798593 0.6869781078390573 C 2.6501328044496932 0.5294486126088918 2.4132211992964985 0.4823239643681547 2.207398994953094 0.5675783128447194 C 2.00157679060969 0.6528326613212836 1.8673771463961322 0.8536766221989531 1.8673771463961322 1.0764569708272416 L 2.4181834366916743 1.0764569708272416 Z" fill="#adadad" transform="matrix(1,0,0,1,0,0)" fill-rule="nonzero"></path></g><g clip-path="url(#SvgjsClipPath30821854e6bd-f869-4ac9-b70b-a406267042b6)"><path d=" M 3.5196839736923833 1.627263261122784 C 3.215496652373756 1.6272013841236772 2.9689484828164208 1.3805696151097102 2.968989732051506 1.0763822902944484 C 2.9690309812865934 0.7721949654791866 3.21564603063617 0.5256300717223175 3.5198333575492438 0.5256506931931935 C 3.8240206844623144 0.5256713146640692 4.0706023012848735 0.7722696432151841 4.070602307578302 1.0764569708272413 L 3.5196839736923833 1.0764569708272413 Z" fill="#939393" transform="matrix(1,0,0,1,0,0)" fill-rule="nonzero"></path></g></g><g><path d=" M 0.1201171875 1.05029296875 L 0.1201171875 0 L 0.711181640625 0 L 0.711181640625 0.090087890625 L 0.214599609375 0.090087890625 L 0.214599609375 0.48046875 L 0.61669921875 0.48046875 L 0.61669921875 0.570556640625 L 0.214599609375 0.570556640625 L 0.214599609375 0.960205078125 L 0.711181640625 0.960205078125 L 0.711181640625 1.05029296875 L 0.1201171875 1.05029296875 M 1.1162109375 0.819580078125 L 1.119140625 0.8583984375 L 1.1220703125 0.819580078125 L 1.35498046875 0 L 1.452392578125 0 L 1.143310546875 1.05029296875 L 1.093505859375 1.05029296875 L 0.785888671875 0 L 0.884033203125 0 L 1.1162109375 0.819580078125" fill="#595959" fill-rule="nonzero"></path></g><g></g></g><defs><clipPath id="SvgjsClipPath3084"><path d=" M 1.867041015625 -0.5764100744208966 h 2.2034492483629253 v 2.2031131175917933 h -2.2034492483629253 Z"></path></clipPath><clipPath id="SvgjsClipPath30821854e6bd-f869-4ac9-b70b-a406267042b6"><path d=" M 1.867041015625 -0.5764100744208966 L 4.070490263987925 -0.5764100744208966 L 4.070490263987925 1.6267030431708966 L 1.867041015625 1.6267030431708966 Z"></path></clipPath></defs></svg>